<svg xmlns="http://www.w3.org/2000/svg" width="16" height="16" viewBox="0 0 100 100" fill="none">
  <g fill="#59A869" opacity="0.7">
    <path d="M 6 48 C 18 32, 33 21, 50 19 C 67 17, 81 21, 90 34 C 94 41, 91 53, 85 59 C 82 62, 78 59, 75 51 C 71 41, 58 37, 45 38 C 31 39, 18 43, 6 48 Z"/>
    <path d="M 62 41 C 77 49, 81 67, 69 81 C 62 90, 48 95, 41 88 C 35 82, 40 73, 49 75 C 55 76, 57 69, 53 61 C 49 53, 46 47, 42 41 C 48 39, 56 39, 62 41 Z"/>
  </g>
  <circle cx="75" cy="75" r="23" fill="#2E7D4F"/>
  <path d="M 66 68 C 66 59, 84 59, 83 69 C 82 75, 72 79, 66 85 L 85 85"
        fill="none" stroke="#FFFFFF" stroke-width="7" stroke-linecap="round" stroke-linejoin="round"/>
</svg>
